<svg viewBox="0 0 889 100" fill="currentColor" xmlns="http://www.w3.org/2000/svg">
<g>
<path d="M336.8 2L328.8 2.1C327.3 2.1 326 3.6 326 5V61.1C326 74.7 317.7 85.3 303.4 85.3C289.2 85.3 281 74.6 281 60.8V4.8C281 3.4 279.9 2 278.4 2H268C266.6 2 266 3.1 266 4.5V61.8C266 82.7 281.1 99.1 302.9 99.1C324.8 99.1 340 82.7 340 61.8V4.7C340 3.3 338.2 2 336.8 2Z" />
<path d="M745.4 2.6C745.2 1.5 744 1 742.9 1H740.7C739.7 1 738.6 1.3 738.3 2.1L709.5 72H708.9L679.9 2.1C679.6 1.3 678.4 1 677.5 1H675.3C674.2 1 673.1 1.5 672.8 2.6L655.6 95C655.3 96.9 656.3 98.1 658.2 98.1H667.2C668.3 98.1 669.6 96.4 669.7 95.4L679.7 33.1C679.8 33.1 680.1 33.1 680.3 33.1L705.4 97.5C705.7 98.3 706.6 100.1 707.8 100.1H710.3C711.6 100.1 712.4 98.3 712.7 97.5L737.7 33.1C737.7 33.1 738 33.1 738.1 33.1L748.4 95.4C748.7 96.4 749.8 98.1 751 98.1H760C761.9 98.1 762.9 97 762.5 95L745.4 2.6Z" />
<path d="M888.7 94.3L846.4 2.1C846 1.3 844.7 1 844 1H842.6C841.9 1 840.7 1.2 840.2 2L797.6 94.5C796.8 96.3 797.9 98 800 98H808.7C810.4 98 811.5 96.6 811.9 95.6C814.7 89.3 817.6 83 820.4 76.1L825.7 65H825.8L842.7 27H843.4L860.5 65.8L865.6 77H865.7L874.3 95.9C874.9 97.1 875.8 98 877.5 98H886.2C888.4 98 889.6 96.1 888.7 94.3Z" />
<path d="M74.1 48.7001C80.6 45.0001 88.5 37.8001 88.5 27.2001C88.5 12.7001 76.4 2.1001 59.6 2.1001H44.5C43.7 2.1001 42.9 2.6001 42.6 3.3001L38.8 11.6001C38.2 13.0001 39.2 14.5001 40.7 14.5001H48.4H58.9C67.8 14.5001 73.2 20.3001 73.2 28.7001C73.2 37.0001 67.8 43.4001 58.9 43.4001H48.4H39.5H25.5C24.7 43.4001 23.9 43.9001 23.6 44.6001L19.8 52.9001C19.2 54.3001 20.2 55.8001 21.7 55.8001H39.5H46.1H59C68 55.8001 76.1 61.6001 76.1 70.0001C76.1 78.5001 69.6 84.7001 61.1 84.7001H46.1H39.5H6.5C5.7 84.7001 4.9 85.2001 4.6 85.9001L0.200002 95.5001C-0.399998 96.9001 0.600002 98.4001 2.1 98.4001H61.2C78.7 98.4001 91.5 86.9001 91.5 71.5001C91.4 58.8001 81.4 51.8001 74.1 48.7001Z" />
<path d="M472.4 31.1C472.4 14.7 458.8 2 442.1 2H397.4C395.9 2 394.9 2.6 394.9 4V12.4C394.9 13.5 395.8 14 396.9 14H408.7H431.1H440.3C449 14 456.6 20.5 457.6 29.1C458.9 39.5 450.5 49 440.8 49H431H408.6H397C395.8 49 395 49.8 395 50.9V95.1C395 96.5 395.9 98 397.5 98H406.5C407.8 98 408 97.4 408 96.1V60H437L455.5 96.6C455.8 97.2 456.6 98 457.7 98H468.5C470.9 98 471.8 95.7 470.9 93.9L451.9 59C464 54.2 472.4 43.8 472.4 31.1Z" />
<path d="M217 31.1C217 14.8 203.4 2 186.7 2H140.8C139.3 2 138 2.6 138 4V12.4C138 13.5 139.3 14 140.4 14H153.4H175.8H185C193.7 14 201.3 20.5 202.3 29.1C203.6 39.5 195.2 49 185.5 49H175.7H153.3H141.5C140.3 49 137.9 49.8 137.9 50.9V95.1C137.9 96.5 140.3 98 141.9 98H150.9C152.2 98 152.9 97.4 152.9 96.1V60H181.5L200 96.6C200.3 97.2 201.1 98 202.2 98H213C215.4 98 216.3 95.7 215.4 93.9L196.4 59C208.5 54.2 217 43.8 217 31.1Z" />
<path d="M593.5 86.9L586.4 79.8C585.7 79.1 584.5 79.1 583.6 79.7C578.1 83.1 571.6 85.2 564.7 85.2C544.8 85.2 528.6 68.9 528.6 49.3C528.6 42.5 530.7 35.9 534.1 30.5C534.6 29.7 534.6 28.5 533.9 27.8L526.8 20.8C525.9 19.9 524.2 20.2 523.5 21.2C517.9 29.3 514.6 39.1 514.8 49.8C515.1 76.7 537.4 98.8 564.5 99C575.2 99.1 585.1 95.7 593.2 90.2C594.2 89.5 594.4 87.8 593.5 86.9Z" />
<path d="M535.6 12.1L542.7 19.1C543.4 19.8 544.6 19.8 545.4 19.3C550.9 15.9 557.5 13.8 564.5 13.8C584.2 13.8 600.5 29.7 600.5 49.4C600.5 56.3 598.4 62.9 594.9 68.4C594.4 69.2 594.4 70.4 595.1 71.1L602.2 78.2C603.1 79.1 604.8 78.9 605.5 77.8C611.1 69.7 614.3 59.9 614.3 49.3C614.3 21.7 592.4 0 564.6 0C554 0 544.1 3.3 536 8.8C535 9.5 534.7 11.1 535.6 12.1Z" />
</g>
</svg>
