<svg viewBox="0 0 1000 1000" fill="currentColor" xmlns="http://www.w3.org/2000/svg">
<path d="M500 0C223.85 0 0 223.85 0 500C0 776.15 223.85 1000 500 1000C776.15 1000 1000 776.15 1000 500C1000 223.85 776.15 0 500 0ZM499.19 926.53C440.551 926.488 382.554 914.319 328.843 890.789C275.132 867.259 226.867 832.876 187.08 789.8H561.22C594.923 789.803 627.8 779.375 655.341 759.947C682.881 740.52 703.733 713.046 715.037 681.295C726.34 649.544 727.54 615.073 718.472 582.613C709.404 550.154 690.512 521.295 664.39 500C677.235 489.495 688.418 477.108 697.56 463.26C713.764 438.645 723.004 410.104 724.3 380.663C725.597 351.222 718.901 321.979 704.924 296.035C690.946 270.091 670.208 248.414 644.908 233.302C619.608 218.19 590.69 210.207 561.22 210.2H441.43C438.321 210.202 435.276 211.092 432.655 212.764C430.033 214.436 427.943 216.821 426.63 219.64L407.63 260.46C406.47 262.948 405.956 265.689 406.136 268.429C406.315 271.169 407.183 273.819 408.658 276.134C410.134 278.45 412.169 280.356 414.576 281.677C416.983 282.998 419.684 283.69 422.43 283.69H559.75C608.98 283.69 650.19 322.69 651.02 371.93C651.222 383.851 649.048 395.693 644.626 406.765C640.204 417.837 633.621 427.918 625.263 436.42C616.904 444.922 606.937 451.675 595.941 456.285C584.946 460.894 573.143 463.269 561.22 463.27H323.43C320.321 463.27 317.277 464.158 314.656 465.828C312.034 467.498 309.944 469.883 308.63 472.7L289.63 513.52C288.472 516.007 287.959 518.747 288.14 521.485C288.32 524.223 289.188 526.871 290.664 529.184C292.139 531.498 294.174 533.402 296.58 534.721C298.986 536.04 301.686 536.731 304.43 536.73H559.75C608.98 536.73 650.19 575.73 651.02 625C651.22 636.92 649.046 648.761 644.623 659.832C640.2 670.903 633.618 680.983 625.259 689.484C616.901 697.984 606.934 704.736 595.939 709.346C584.944 713.955 573.142 716.329 561.22 716.33H132.36C94.7033 652.529 74.4102 579.979 73.5 505.9C70.36 273.28 254.49 80.56 487 73.66C730.18 66.46 929.29 262.87 926.47 505.07C925.403 617.529 879.858 724.991 799.789 803.967C719.721 882.943 611.643 927.008 499.18 926.53" />
</svg>
