<?xml version="1.0" encoding="utf-8"?>
<!-- Generator: Adobe Illustrator 18.0.0, SVG Export Plug-In . SVG Version: 6.00 Build 0)  -->
<!DOCTYPE svg PUBLIC "-//W3C//DTD SVG 1.1//EN" "http://www.w3.org/Graphics/SVG/1.1/DTD/svg11.dtd">
<svg version="1.1" id="Layer_1" xmlns="http://www.w3.org/2000/svg" xmlns:xlink="http://www.w3.org/1999/xlink" x="0px" y="0px"
	 viewBox="0 0 36 36" enable-background="new 0 0 36 36" xml:space="preserve">
<g>
	<path fill="#FFFFFF" d="M18,0C8.1,0,0,8.1,0,18c0,9.9,8.1,18,18,18c9.9,0,18-8.1,18-18C36,8.1,27.9,0,18,0z M15.8,8l2.7,5.4
		l-1.7,0.8l-2.7-5.4L15.8,8z M13.5,20.5C8.9,11.3,12,9.9,13.1,9.3l2.7,5.5c-1.7,0.9,1.9,8.1,3.6,7.2l2.7,5.5
		C21,28.1,18.2,29.8,13.5,20.5z M23.3,27l-2.7-5.4l1.7-0.8l2.7,5.4L23.3,27z"/>
</g>
</svg>
