<?xml version="1.0" encoding="utf-8"?>
<!-- Generator: Adobe Illustrator 18.0.0, SVG Export Plug-In . SVG Version: 6.00 Build 0)  -->
<!DOCTYPE svg PUBLIC "-//W3C//DTD SVG 1.1//EN" "http://www.w3.org/Graphics/SVG/1.1/DTD/svg11.dtd">
<svg version="1.1" id="Layer_1" xmlns="http://www.w3.org/2000/svg" xmlns:xlink="http://www.w3.org/1999/xlink" x="0px" y="0px"
	 viewBox="0 0 100 100" enable-background="new 0 0 100 100" xml:space="preserve">
<path fill="#FFFFFF" d="M50,0C22.4,0,0,22.4,0,50s22.4,50,50,50s50-22.4,50-50S77.6,0,50,0z M50,92.7C38.1,92.7,27.3,86,19.6,80
	h34.3c10.6,0,18.4-7.3,18.4-16.7c0-7.8-6.1-12.2-10.5-14.1c4-2.3,8.8-7,8.8-13.5C70.5,26.8,63.2,20,53,20h-9.2c-0.5,0-0.9,0.5-1.2,1
	l-2.3,5.1C39.9,27,40.5,28,41.5,28h4.7h6.3c5.4,0,8.7,3.2,8.7,8.3c0,5.1-3.3,8.7-8.7,8.7h-6.3h-5.4h-8.5c-0.5,0-0.9,0.7-1.2,1.1
	l-2.3,5.1C28.4,52,29,53,29.9,53h10.8h4h7.8c5.5,0,10.4,4.2,10.4,9.3c0,5.2-4,9.7-9.1,9.7h-9.1h-4H13.2c-3.6-6-5.6-13.9-5.6-21.5
	c0-23.4,19-42.6,42.4-42.6s42.4,19,42.4,42.4S73.4,92.7,50,92.7z"/>
</svg>
