<?xml version="1.0" encoding="utf-8"?>
<!-- Generator: Adobe Illustrator 18.0.0, SVG Export Plug-In . SVG Version: 6.00 Build 0)  -->
<!DOCTYPE svg PUBLIC "-//W3C//DTD SVG 1.1//EN" "http://www.w3.org/Graphics/SVG/1.1/DTD/svg11.dtd">
<svg version="1.1" id="Layer_1" xmlns="http://www.w3.org/2000/svg" xmlns:xlink="http://www.w3.org/1999/xlink" x="0px" y="0px"
	 viewBox="0 0 889 100" enable-background="new 0 0 889 100" xml:space="preserve">
<g>
	<path fill="#FFFFFF" d="M336.8,2l-8,0.1c-1.5,0-2.8,1.5-2.8,2.9v56.1c0,13.6-8.3,24.2-22.6,24.2c-14.2,0-22.4-10.7-22.4-24.5V4.8
		c0-1.4-1.1-2.8-2.6-2.8L268,2c-1.4,0-2,1.1-2,2.5v57.3c0,20.9,15.1,37.3,36.9,37.3c21.9,0,37.1-16.4,37.1-37.3V4.7
		C340,3.3,338.2,2,336.8,2z"/>
	<path fill="#FFFFFF" d="M745.4,2.6C745.2,1.5,744,1,742.9,1h-2.2c-1,0-2.1,0.3-2.4,1.1L709.5,72h-0.6l-29-69.9
		c-0.3-0.8-1.5-1.1-2.4-1.1h-2.2c-1.1,0-2.2,0.5-2.5,1.6l-17.2,92.4c-0.3,1.9,0.7,3.1,2.6,3.1h9c1.1,0,2.4-1.7,2.5-2.7l10-62.3
		c0.1,0,0.4,0,0.6,0l25.1,64.4c0.3,0.8,1.2,2.6,2.4,2.6h2.5c1.3,0,2.1-1.8,2.4-2.6l25-64.4c0,0,0.3,0,0.4,0l10.3,62.3
		c0.3,1,1.4,2.7,2.6,2.7h9c1.9,0,2.9-1.1,2.5-3.1L745.4,2.6z"/>
	<path fill="#FFFFFF" d="M888.7,94.3L846.4,2.1C846,1.3,844.7,1,844,1h-1.4c-0.7,0-1.9,0.2-2.4,1l-42.6,92.5
		c-0.8,1.8,0.3,3.5,2.4,3.5h8.7c1.7,0,2.8-1.4,3.2-2.4c2.8-6.3,5.7-12.6,8.5-19.5l5.3-11.1h0.1l16.9-38h0.7l17.1,38.8l5.1,11.2h0.1
		l8.6,18.9c0.6,1.2,1.5,2.1,3.2,2.1h8.7C888.4,98,889.6,96.1,888.7,94.3z"/>
	<path fill="#FFFFFF" d="M74.1,48.7c6.5-3.7,14.4-10.9,14.4-21.5c0-14.5-12.1-25.1-28.9-25.1H44.5c-0.8,0-1.6,0.5-1.9,1.2l-3.8,8.3
		c-0.6,1.4,0.4,2.9,1.9,2.9h7.7h10.5c8.9,0,14.3,5.8,14.3,14.2c0,8.3-5.4,14.7-14.3,14.7H48.4h-8.9h-14c-0.8,0-1.6,0.5-1.9,1.2
		l-3.8,8.3c-0.6,1.4,0.4,2.9,1.9,2.9h17.8h6.6h12.9c9,0,17.1,5.8,17.1,14.2c0,8.5-6.5,14.7-15,14.7H46.1h-6.6h-33
		c-0.8,0-1.6,0.5-1.9,1.2l-4.4,9.6c-0.6,1.4,0.4,2.9,1.9,2.9h59.1c17.5,0,30.3-11.5,30.3-26.9C91.4,58.8,81.4,51.8,74.1,48.7z"/>
	<path fill="#FFFFFF" d="M472.4,31.1c0-16.4-13.6-29.1-30.3-29.1h-44.7c-1.5,0-2.5,0.6-2.5,2v8.4c0,1.1,0.9,1.6,2,1.6h11.8h22.4h9.2
		c8.7,0,16.3,6.5,17.3,15.1c1.3,10.4-7.1,19.9-16.8,19.9h-9.8h-22.4H397c-1.2,0-2,0.8-2,1.9v44.2c0,1.4,0.9,2.9,2.5,2.9h9
		c1.3,0,1.5-0.6,1.5-1.9V60h29l18.5,36.6c0.3,0.6,1.1,1.4,2.2,1.4h10.8c2.4,0,3.3-2.3,2.4-4.1l-19-34.9
		C464,54.2,472.4,43.8,472.4,31.1z"/>
	<path fill="#FFFFFF" d="M217,31.1C217,14.8,203.4,2,186.7,2h-45.9c-1.5,0-2.8,0.6-2.8,2v8.4c0,1.1,1.3,1.6,2.4,1.6h13h22.4h9.2
		c8.7,0,16.3,6.5,17.3,15.1c1.3,10.4-7.1,19.9-16.8,19.9h-9.8h-22.4h-11.8c-1.2,0-3.6,0.8-3.6,1.9v44.2c0,1.4,2.4,2.9,4,2.9h9
		c1.3,0,2-0.6,2-1.9V60h28.6L200,96.6c0.3,0.6,1.1,1.4,2.2,1.4h10.8c2.4,0,3.3-2.3,2.4-4.1l-19-34.9C208.5,54.2,217,43.8,217,31.1z"
		/>
	<path fill="#FFFFFF" d="M593.5,86.9l-7.1-7.1c-0.7-0.7-1.9-0.7-2.8-0.1c-5.5,3.4-12,5.5-18.9,5.5c-19.9,0-36.1-16.3-36.1-35.9
		c0-6.8,2.1-13.4,5.5-18.8c0.5-0.8,0.5-2-0.2-2.7l-7.1-7c-0.9-0.9-2.6-0.6-3.3,0.4c-5.6,8.1-8.9,17.9-8.7,28.6
		c0.3,26.9,22.6,49,49.7,49.2c10.7,0.1,20.6-3.3,28.7-8.8C594.2,89.5,594.4,87.8,593.5,86.9z"/>
	<path fill="#FFFFFF" d="M535.6,12.1l7.1,7c0.7,0.7,1.9,0.7,2.7,0.2c5.5-3.4,12.1-5.5,19.1-5.5c19.7,0,36,15.9,36,35.6
		c0,6.9-2.1,13.5-5.6,19c-0.5,0.8-0.5,2,0.2,2.7l7.1,7.1c0.9,0.9,2.6,0.7,3.3-0.4c5.6-8.1,8.8-17.9,8.8-28.5
		C614.3,21.7,592.4,0,564.6,0C554,0,544.1,3.3,536,8.8C535,9.5,534.7,11.1,535.6,12.1z"/>
</g>
</svg>
